<svg width="64" height="64" viewBox="0 0 64 64" fill="none" xmlns="http://www.w3.org/2000/svg">
<path fill-rule="evenodd" clip-rule="evenodd" d="M45.7987 51.0369C46.9764 52.293 49.5437 53.0625 51.0671 53.519L51.0673 53.5191C51.3221 53.5955 51.5478 53.6631 51.7328 53.7228C49.9553 51.5244 47.6447 49.0652 45.1894 46.4521L45.1893 46.452C37.8084 38.5965 29.1207 29.3503 29.6831 21.6165C30.169 14.9364 34.4928 9.62347 37.3037 7C33.8682 7.87449 28.6278 10.7478 26.9972 21.9288C25.8194 30.0051 42.1808 47.2273 45.4071 50.6233L45.4081 50.6244C45.5749 50.8 45.7066 50.9385 45.7987 51.0369ZM39.7397 33.9843L36.5541 29.9242C39.0526 26.9259 40.4268 24.24 39.9271 19.6177C43.6749 23.4904 42.613 30.6113 39.7397 33.9843ZM26.8708 48.8414C22.9799 43.5568 17.7696 36.4803 17.003 32.8599C16.1912 29.0268 17.6901 23.8027 20.8133 21.2417C19.8971 22.9699 19.2153 28.8303 22.125 33.4221C24.6081 37.3408 29.0191 42.2475 32.2595 45.852L32.2596 45.852C34.236 48.0506 35.777 49.7647 36.1793 50.4747C36.8547 51.6666 31.8677 56.2885 30.8699 54.5348C30.2142 53.3824 28.6863 51.3072 26.8713 48.8421L26.8712 48.842L26.8711 48.8418L26.871 48.8416L26.8709 48.8415L26.8708 48.8414L26.8708 48.8414ZM23.3743 45.9148L25.0608 48.1011C23.2077 50.4747 19.1369 54.936 17.5651 53.9727C16.2747 53.1817 18.3688 51.1146 20.5195 48.9917C21.596 47.9291 22.6867 46.8525 23.3743 45.9148ZM20.8133 42.167L18.6895 39.0438C16.7211 40.6288 13.9472 42.4229 11.3395 44.1095L11.3395 44.1095L11.3395 44.1096C7.57549 46.5441 4.15816 48.7544 4.01056 49.7876C3.76071 51.5365 8.00823 56.545 9.81968 55.7216C12.0184 54.7222 18.0649 46.2688 20.8133 42.167ZM21.7502 43.6661L22.5622 44.6031C20.8133 47.4764 17.702 50.7315 16.191 51.7864C13.8526 53.4189 16.033 50.7507 18.6159 47.59L18.616 47.5898L18.6161 47.5898L18.6164 47.5894L18.6165 47.5892C19.6902 46.2754 20.8333 44.8765 21.7502 43.6661ZM25.4981 19.9924C23.9365 21.7414 21.4847 26.2261 22.7497 30.3614C24.3737 35.6708 42.2383 54.972 43.7999 55.7216C45.3615 56.4712 46.7357 55.5967 46.3609 54.4099C46.2299 53.9949 43.9106 51.2417 40.88 47.6441L40.88 47.644L40.88 47.644C35.5991 41.375 28.1585 32.5422 26.3725 29.0496C24.6158 25.6141 24.3737 23.5528 25.4981 19.9924ZM34.6177 12.6217C33.077 14.2666 30.5102 18.1185 30.6825 23.6778C30.897 30.5941 45.8075 45.8401 51.6732 51.8378C52.6413 52.8277 53.363 53.5656 53.7316 53.9726C56.7299 57.2832 60.5401 49.4375 58.4788 47.6638C57.8699 47.1398 56.2966 46.2567 54.2194 45.0905C47.9586 41.5759 37.1195 35.491 34.3054 28.9247C31.1126 21.4749 33.4025 15.6911 34.5958 12.677L34.6177 12.6217Z" fill="#281410"/>
</svg>
